<svg width="24" height="16" viewBox="0 0 24 16" fill="none" xmlns="http://www.w3.org/2000/svg">
<path d="M0.249297 15.5L5.5893 0.599999H7.9093L13.2493 15.5H11.1493L9.9293 12H3.5693L2.3493 15.5H0.249297ZM4.1893 10.2H9.3093L6.4693 2.02H7.0293L4.1893 10.2ZM18.0668 15.74C17.3601 15.74 16.7335 15.6133 16.1868 15.36C15.6535 15.0933 15.2335 14.7333 14.9268 14.28C14.6201 13.8133 14.4668 13.28 14.4668 12.68C14.4668 12.1067 14.5868 11.5933 14.8268 11.14C15.0801 10.6733 15.4668 10.28 15.9868 9.96C16.5201 9.64 17.1868 9.41333 17.9868 9.28L21.9868 8.62V10.18L18.4068 10.78C17.7135 10.9 17.2068 11.12 16.8868 11.44C16.5801 11.76 16.4268 12.1533 16.4268 12.62C16.4268 13.06 16.6001 13.4267 16.9468 13.72C17.3068 14.0133 17.7535 14.16 18.2868 14.16C18.9668 14.16 19.5535 14.02 20.0468 13.74C20.5535 13.4467 20.9468 13.0533 21.2268 12.56C21.5201 12.0667 21.6668 11.52 21.6668 10.92V8.18C21.6668 7.59333 21.4468 7.12 21.0068 6.76C20.5801 6.38667 20.0135 6.2 19.3068 6.2C18.6935 6.2 18.1468 6.36 17.6668 6.68C17.2001 6.98667 16.8535 7.4 16.6268 7.92L15.0068 7.08C15.2068 6.58667 15.5268 6.14667 15.9668 5.76C16.4068 5.36 16.9201 5.04667 17.5068 4.82C18.0935 4.59333 18.7068 4.48 19.3468 4.48C20.1735 4.48 20.9001 4.64 21.5268 4.96C22.1535 5.26667 22.6401 5.7 22.9868 6.26C23.3468 6.80667 23.5268 7.44667 23.5268 8.18V15.5H21.7068V13.46L22.0468 13.58C21.8201 14.0067 21.5135 14.38 21.1268 14.7C20.7401 15.02 20.2868 15.2733 19.7668 15.46C19.2468 15.6467 18.6801 15.74 18.0668 15.74Z" fill="white"/>
</svg>
