<svg width="24" height="25" viewBox="0 0 24 25" fill="none" xmlns="http://www.w3.org/2000/svg">
<path fill-rule="evenodd" clip-rule="evenodd" d="M11.9999 13.6485L17.6569 19.3055C17.8455 19.4877 18.0982 19.5885 18.3603 19.5862C18.6225 19.5839 18.8734 19.4788 19.0588 19.2933C19.2442 19.1079 19.3493 18.8571 19.3516 18.5949C19.3539 18.3327 19.2531 18.0801 19.0709 17.8915L13.4139 12.2345L19.0709 6.57752C19.2531 6.38892 19.3539 6.13632 19.3516 5.87412C19.3493 5.61193 19.2442 5.36111 19.0588 5.17571C18.8734 4.9903 18.6225 4.88513 18.3603 4.88285C18.0982 4.88057 17.8455 4.98137 17.6569 5.16352L11.9999 10.8205L6.34295 5.16352C6.15349 4.98587 5.90236 4.88889 5.64268 4.89311C5.38299 4.89732 5.13514 5.00241 4.95155 5.18612C4.76797 5.36983 4.66307 5.61776 4.65903 5.87745C4.655 6.13713 4.75216 6.3882 4.92995 6.57752L10.5859 12.2345L4.92895 17.8915C4.83343 17.9838 4.75725 18.0941 4.70484 18.2161C4.65244 18.3381 4.62485 18.4693 4.62369 18.6021C4.62254 18.7349 4.64784 18.8666 4.69812 18.9895C4.7484 19.1124 4.82266 19.224 4.91655 19.3179C5.01044 19.4118 5.1221 19.4861 5.24499 19.5363C5.36789 19.5866 5.49957 19.6119 5.63235 19.6108C5.76513 19.6096 5.89635 19.582 6.01835 19.5296C6.14035 19.4772 6.2507 19.401 6.34295 19.3055L11.9999 13.6485Z" fill="white"/>
</svg>
