<svg width="16" height="22" viewBox="0 0 16 22" fill="none" xmlns="http://www.w3.org/2000/svg">
<path d="M11.75 8H13.625C14.1223 8 14.5992 8.19754 14.9508 8.54917C15.3025 8.90081 15.5 9.37772 15.5 9.875V18.875C15.5 19.3723 15.3025 19.8492 14.9508 20.2008C14.5992 20.5525 14.1223 20.75 13.625 20.75H2.375C1.87772 20.75 1.40081 20.5525 1.04917 20.2008C0.697544 19.8492 0.5 19.3723 0.5 18.875V9.875C0.5 9.37772 0.697544 8.90081 1.04917 8.54917C1.40081 8.19754 1.87772 8 2.375 8H4.25M11.75 5L8 1.25M8 1.25L4.25 5M8 1.25V14.0469" stroke="white" stroke-linecap="round" stroke-linejoin="round"/>
</svg>
