<svg width="16" height="22" viewBox="0 0 16 22" fill="none" xmlns="http://www.w3.org/2000/svg">
<path d="M8.15997 9.87072C8.05997 9.86072 7.93997 9.86072 7.82997 9.87072C6.68217 9.83175 5.59461 9.34756 4.7976 8.52068C4.00059 7.6938 3.55671 6.58917 3.55997 5.44072C3.55997 2.99072 5.53997 1.00072 7.99997 1.00072C8.58238 0.990216 9.16116 1.09453 9.70326 1.3077C10.2454 1.52087 10.7402 1.83874 11.1594 2.24313C11.5787 2.64753 11.9142 3.13055 12.1468 3.66461C12.3793 4.19867 12.5045 4.77331 12.515 5.35572C12.5255 5.93813 12.4212 6.51691 12.208 7.05901C11.9948 7.60111 11.677 8.09592 11.2726 8.51517C10.8682 8.93443 10.3851 9.26993 9.85108 9.50251C9.31702 9.7351 8.74238 9.86022 8.15997 9.87072ZM3.15997 13.5607C0.739971 15.1807 0.739971 17.8207 3.15997 19.4307C5.90997 21.2707 10.42 21.2707 13.17 19.4307C15.59 17.8107 15.59 15.1707 13.17 13.5607C10.43 11.7307 5.91997 11.7307 3.15997 13.5607Z" stroke="white" stroke-width="2" stroke-linecap="round" stroke-linejoin="round"/>
</svg>
