<svg width="24" height="24" viewBox="0 0 24 24" fill="none" xmlns="http://www.w3.org/2000/svg">
<path d="M21.88 3.56022C20.65 6.63022 17.56 10.8102 14.98 12.8802L13.4 14.1402C13.2 14.2902 13 14.4102 12.77 14.5002C12.77 14.3502 12.76 14.2002 12.74 14.0402C12.65 13.3702 12.35 12.7402 11.81 12.2102C11.26 11.6602 10.6 11.3502 9.92 11.2602C9.76 11.2502 9.6 11.2402 9.44 11.2502C9.53 11.0002 9.66 10.7702 9.83 10.5802L11.09 9.00022C13.16 6.42022 17.35 3.31022 20.41 2.08022C20.88 1.90022 21.34 2.04022 21.63 2.33022C21.93 2.63022 22.07 3.09022 21.88 3.56022Z" stroke="white" stroke-linecap="round" stroke-linejoin="round"/>
<path d="M15.82 11.9814C15.82 9.89141 14.13 8.19141 12.03 8.19141M12.78 14.4914C12.78 15.3714 12.44 16.2114 11.81 16.8514C11.32 17.3414 10.66 17.6814 9.87 17.7814L7.9 17.9914C7.64694 18.0184 7.39103 17.9883 7.15117 17.9033C6.9113 17.8182 6.69359 17.6803 6.51411 17.4999C6.33463 17.3195 6.19795 17.101 6.11416 16.8607C6.03038 16.6204 6.00161 16.3643 6.03 16.1114L6.24 14.1414C6.43 12.3914 7.89 11.2714 9.45 11.2414C9.61 11.2314 9.77 11.2414 9.93 11.2514C10.61 11.3414 11.27 11.6514 11.82 12.2014C12.36 12.7414 12.66 13.3614 12.75 14.0314C12.77 14.1914 12.78 14.3514 12.78 14.4914Z" stroke="white" stroke-linecap="round" stroke-linejoin="round"/>
</svg>
