<svg width="131" height="37" viewBox="0 0 131 37" fill="none" xmlns="http://www.w3.org/2000/svg">
<g filter="url(#filter0_b_1023_219)">
<rect x="0.5" y="0.792969" width="130" height="36" rx="8" fill="white" fill-opacity="0.2"/>
<rect x="0.5" y="0.792969" width="130" height="36" rx="8" stroke="white" stroke-opacity="0.4" stroke-width="0.0237098"/>
<rect x="0.5" y="0.792969" width="130" height="36" rx="8" stroke="url(#paint0_linear_1023_219)" stroke-width="0.0237098"/>
<rect x="10.5" y="6.79297" width="24" height="24" rx="6.50847" fill="white"/>
<path d="M22.322 24.4119C21.2289 24.4119 20.271 24.1725 19.4486 23.6936C18.6365 23.2147 17.9962 22.5535 17.5277 21.7102C17.0696 20.8565 16.8406 19.8727 16.8406 18.7587C16.8406 17.6447 17.0696 16.6661 17.5277 15.8228C17.9962 14.9691 18.6365 14.3027 19.4486 13.8238C20.271 13.3449 21.2289 13.1055 22.322 13.1055C23.4048 13.1055 24.3574 13.3449 25.1799 13.8238C26.0023 14.3027 26.6426 14.9691 27.1007 15.8228C27.5588 16.6661 27.7879 17.6447 27.7879 18.7587C27.7879 19.3991 27.711 19.9982 27.5574 20.5559C27.3694 21.2383 27.0199 21.7359 26.4853 22.1997C26.2586 22.3964 26.2473 22.8509 26.539 22.9214L27.6626 23.193C28.4104 23.3738 28.2776 24.4749 27.5082 24.4726L23.9372 24.4273C23.4492 24.4273 22.8426 24.4119 22.322 24.4119ZM22.322 22.616C23.3631 22.616 24.1908 22.2724 24.8051 21.5853C25.4297 20.8982 25.7421 19.956 25.7421 18.7587C25.7421 17.5614 25.4297 16.6192 24.8051 15.9321C24.1908 15.245 23.3631 14.9014 22.322 14.9014C21.2809 14.9014 20.448 15.245 19.8234 15.9321C19.1987 16.6192 18.8864 17.5614 18.8864 18.7587C18.8864 19.956 19.1987 20.8982 19.8234 21.5853C20.448 22.2724 21.2809 22.616 22.322 22.616Z" fill="#312A50"/>
<path d="M48.0256 23.9553C47.0879 23.9553 46.2675 23.7479 45.5642 23.3331C44.8609 22.9184 44.311 22.3459 43.9142 21.6156C43.5175 20.8762 43.3192 20.0242 43.3192 19.0595C43.3192 18.0948 43.5175 17.2472 43.9142 16.5169C44.311 15.7776 44.8609 15.2006 45.5642 14.7858C46.2675 14.3711 47.0879 14.1637 48.0256 14.1637C48.9633 14.1637 49.7838 14.3711 50.487 14.7858C51.1903 15.2006 51.7358 15.7776 52.1235 16.5169C52.5202 17.2472 52.7185 18.0948 52.7185 19.0595C52.7185 19.9881 52.5337 20.8131 52.164 21.5344C51.8034 22.2557 51.2985 22.8237 50.6493 23.2385L52.9349 25.5646H51.1227L49.4321 23.7794C48.9903 23.8967 48.5215 23.9553 48.0256 23.9553ZM48.0256 22.6705C48.6748 22.6705 49.2383 22.5262 49.7161 22.2377C50.203 21.9492 50.5817 21.5344 50.8522 20.9935C51.1227 20.4525 51.2579 19.8078 51.2579 19.0595C51.2579 18.3111 51.1227 17.6665 50.8522 17.1255C50.5817 16.5845 50.203 16.1698 49.7161 15.8813C49.2383 15.5928 48.6748 15.4485 48.0256 15.4485C47.3764 15.4485 46.8084 15.5928 46.3216 15.8813C45.8347 16.1698 45.456 16.5845 45.1855 17.1255C44.9241 17.6665 44.7933 18.3111 44.7933 19.0595C44.7933 19.8078 44.9241 20.4525 45.1855 20.9935C45.456 21.5344 45.8347 21.9492 46.3216 22.2377C46.8084 22.5262 47.3764 22.6705 48.0256 22.6705ZM56.842 23.9553C56.0306 23.9553 55.3904 23.7028 54.9216 23.1979C54.4618 22.693 54.2319 21.9401 54.2319 20.9394V17.0849H55.6654V20.7906C55.6654 22.0889 56.1974 22.7381 57.2613 22.7381C57.7932 22.7381 58.2305 22.5487 58.5731 22.1701C58.9158 21.7914 59.0871 21.2504 59.0871 20.5472V17.0849H60.5206V23.793H59.2494L59.1412 22.6164C58.9338 23.0311 58.6272 23.3602 58.2215 23.6036C57.8248 23.838 57.365 23.9553 56.842 23.9553ZM65.4819 23.9553C64.8418 23.9553 64.2647 23.811 63.7508 23.5225C63.2459 23.225 62.8447 22.8147 62.5472 22.2918C62.2496 21.7598 62.1009 21.1422 62.1009 20.439C62.1009 19.7357 62.2496 19.1226 62.5472 18.5997C62.8537 18.0677 63.2639 17.6575 63.7779 17.369C64.2918 17.0714 64.8643 16.9227 65.4954 16.9227C66.1356 16.9227 66.7081 17.0714 67.213 17.369C67.7269 17.6575 68.1327 18.0677 68.4302 18.5997C68.7367 19.1226 68.89 19.7357 68.89 20.439C68.89 21.1422 68.7367 21.7598 68.4302 22.2918C68.1327 22.8147 67.7269 23.225 67.213 23.5225C66.6991 23.811 66.1221 23.9553 65.4819 23.9553ZM65.4819 22.7246C65.8245 22.7246 66.1401 22.6389 66.4286 22.4676C66.7261 22.2963 66.9651 22.0438 67.1454 21.7102C67.3257 21.3676 67.4159 20.9439 67.4159 20.439C67.4159 19.9341 67.3257 19.5148 67.1454 19.1812C66.9741 18.8386 66.7397 18.5816 66.4421 18.4103C66.1536 18.239 65.8381 18.1534 65.4954 18.1534C65.1528 18.1534 64.8328 18.239 64.5352 18.4103C64.2467 18.5816 64.0123 18.8386 63.832 19.1812C63.6516 19.5148 63.5615 19.9341 63.5615 20.439C63.5615 20.9439 63.6516 21.3676 63.832 21.7102C64.0123 22.0438 64.2467 22.2963 64.5352 22.4676C64.8237 22.6389 65.1393 22.7246 65.4819 22.7246ZM72.9892 23.793C72.3311 23.793 71.8081 23.6352 71.4204 23.3196C71.0327 22.995 70.8389 22.4225 70.8389 21.602V18.2886H69.6893V17.0849H70.8389L71.0147 15.3809H72.2725V17.0849H74.1658V18.2886H72.2725V21.602C72.2725 21.9717 72.3491 22.2287 72.5024 22.3729C72.6647 22.5082 72.9396 22.5758 73.3273 22.5758H74.0982V23.793H72.9892ZM78.6099 23.9553C77.9518 23.9553 77.3657 23.811 76.8518 23.5225C76.3469 23.225 75.9502 22.8147 75.6616 22.2918C75.3731 21.7688 75.2289 21.1603 75.2289 20.466C75.2289 19.7627 75.3686 19.1451 75.6481 18.6132C75.9366 18.0812 76.3334 17.6665 76.8383 17.369C77.3522 17.0714 77.9472 16.9227 78.6235 16.9227C79.2816 16.9227 79.8542 17.0714 80.341 17.369C80.8279 17.6575 81.2066 18.0452 81.4771 18.532C81.7476 19.0189 81.8828 19.5554 81.8828 20.1414C81.8828 20.2316 81.8783 20.3308 81.8693 20.439C81.8693 20.5381 81.8648 20.6508 81.8557 20.7771H76.6354C76.6805 21.4262 76.8924 21.9221 77.271 22.2647C77.6587 22.5983 78.105 22.7651 78.6099 22.7651C79.0157 22.7651 79.3538 22.675 79.6243 22.4946C79.9038 22.3053 80.1111 22.0529 80.2464 21.7373H81.6799C81.4996 22.3684 81.139 22.8959 80.598 23.3196C80.066 23.7434 79.4034 23.9553 78.6099 23.9553ZM78.6099 18.0993C78.1321 18.0993 77.7083 18.2435 77.3387 18.532C76.969 18.8115 76.7436 19.2353 76.6624 19.8033H80.4492C80.4222 19.2804 80.2373 18.8656 79.8947 18.5591C79.5521 18.2525 79.1239 18.0993 78.6099 18.0993ZM83.3703 23.793V14.0555H84.8038V23.793H83.3703ZM87.4036 26.7683L89.013 23.2385H88.6208L85.9701 17.0849H87.5254L89.581 22.0483L91.7314 17.0849H93.2461L88.9184 26.7683H87.4036ZM93.989 23.8741C93.7185 23.8741 93.4931 23.7885 93.3128 23.6172C93.1415 23.4368 93.0558 23.225 93.0558 22.9815C93.0558 22.7291 93.1415 22.5172 93.3128 22.3459C93.4931 22.1656 93.7185 22.0754 93.989 22.0754C94.2595 22.0754 94.4804 22.1656 94.6517 22.3459C94.823 22.5172 94.9086 22.7291 94.9086 22.9815C94.9086 23.225 94.823 23.4368 94.6517 23.6172C94.4804 23.7885 94.2595 23.8741 93.989 23.8741ZM98.6251 23.9553C98.057 23.9553 97.5882 23.8606 97.2185 23.6713C96.8489 23.4819 96.5739 23.234 96.3936 22.9274C96.2132 22.6119 96.1231 22.2692 96.1231 21.8996C96.1231 21.2504 96.3755 20.7365 96.8804 20.3578C97.3853 19.9791 98.1066 19.7898 99.0443 19.7898H100.802V19.6681C100.802 19.1451 100.658 18.7529 100.37 18.4915C100.09 18.23 99.725 18.0993 99.2742 18.0993C98.8775 18.0993 98.5304 18.1984 98.2329 18.3968C97.9443 18.5861 97.7685 18.8701 97.7054 19.2488H96.2718C96.3169 18.762 96.4792 18.3472 96.7587 18.0046C97.0472 17.653 97.4079 17.387 97.8407 17.2067C98.2825 17.0173 98.7648 16.9227 99.2878 16.9227C100.225 16.9227 100.951 17.1706 101.465 17.6665C101.979 18.1534 102.236 18.8206 102.236 19.6681V23.793H100.992L100.87 22.6434C100.681 23.0131 100.406 23.3241 100.045 23.5766C99.6845 23.829 99.2111 23.9553 98.6251 23.9553ZM98.9091 22.7922C99.2968 22.7922 99.6214 22.702 99.8828 22.5217C100.153 22.3324 100.361 22.0844 100.505 21.7779C100.658 21.4713 100.753 21.1332 100.789 20.7635H99.1931C98.6251 20.7635 98.2193 20.8627 97.9759 21.0611C97.7415 21.2594 97.6243 21.5074 97.6243 21.8049C97.6243 22.1115 97.737 22.3549 97.9624 22.5352C98.1968 22.7065 98.5124 22.7922 98.9091 22.7922ZM103.908 26.7683V17.0849H105.192L105.341 18.1263C105.558 17.8107 105.855 17.5312 106.234 17.2878C106.612 17.0444 107.099 16.9227 107.694 16.9227C108.343 16.9227 108.916 17.0759 109.412 17.3825C109.908 17.689 110.295 18.1083 110.575 18.6402C110.864 19.1722 111.008 19.7763 111.008 20.4525C111.008 21.1287 110.864 21.7328 110.575 22.2647C110.295 22.7877 109.908 23.2024 109.412 23.509C108.916 23.8065 108.339 23.9553 107.681 23.9553C107.158 23.9553 106.694 23.8516 106.288 23.6442C105.891 23.4368 105.576 23.1438 105.341 22.7651V26.7683H103.908ZM107.437 22.711C108.05 22.711 108.555 22.5037 108.952 22.0889C109.349 21.6652 109.547 21.1152 109.547 20.439C109.547 19.9972 109.457 19.605 109.277 19.2623C109.096 18.9197 108.848 18.6538 108.533 18.4644C108.217 18.2661 107.852 18.1669 107.437 18.1669C106.824 18.1669 106.319 18.3788 105.923 18.8025C105.535 19.2263 105.341 19.7718 105.341 20.439C105.341 21.1152 105.535 21.6652 105.923 22.0889C106.319 22.5037 106.824 22.711 107.437 22.711ZM112.558 26.7683V17.0849H113.843L113.992 18.1263C114.208 17.8107 114.506 17.5312 114.884 17.2878C115.263 17.0444 115.75 16.9227 116.345 16.9227C116.994 16.9227 117.567 17.0759 118.063 17.3825C118.559 17.689 118.946 18.1083 119.226 18.6402C119.514 19.1722 119.659 19.7763 119.659 20.4525C119.659 21.1287 119.514 21.7328 119.226 22.2647C118.946 22.7877 118.559 23.2024 118.063 23.509C117.567 23.8065 116.99 23.9553 116.332 23.9553C115.809 23.9553 115.344 23.8516 114.939 23.6442C114.542 23.4368 114.226 23.1438 113.992 22.7651V26.7683H112.558ZM116.088 22.711C116.701 22.711 117.206 22.5037 117.603 22.0889C118 21.6652 118.198 21.1152 118.198 20.439C118.198 19.9972 118.108 19.605 117.927 19.2623C117.747 18.9197 117.499 18.6538 117.184 18.4644C116.868 18.2661 116.503 18.1669 116.088 18.1669C115.475 18.1669 114.97 18.3788 114.573 18.8025C114.186 19.2263 113.992 19.7718 113.992 20.439C113.992 21.1152 114.186 21.6652 114.573 22.0889C114.97 22.5037 115.475 22.711 116.088 22.711Z" fill="white"/>
</g>
<defs>
<filter id="filter0_b_1023_219" x="-7.57328" y="-7.28007" width="146.147" height="52.1461" filterUnits="userSpaceOnUse" color-interpolation-filters="sRGB">
<feFlood flood-opacity="0" result="BackgroundImageFix"/>
<feGaussianBlur in="BackgroundImageFix" stdDeviation="4.03066"/>
<feComposite in2="SourceAlpha" operator="in" result="effect1_backgroundBlur_1023_219"/>
<feBlend mode="normal" in="SourceGraphic" in2="effect1_backgroundBlur_1023_219" result="shape"/>
</filter>
<linearGradient id="paint0_linear_1023_219" x1="65.5" y1="0.792969" x2="65.5" y2="36.793" gradientUnits="userSpaceOnUse">
<stop stop-color="white"/>
<stop offset="1" stop-color="#7767FF" stop-opacity="0"/>
</linearGradient>
</defs>
</svg>
