<svg width="23" height="22" viewBox="0 0 23 22" fill="none" xmlns="http://www.w3.org/2000/svg">
<path d="M16.6349 7.40234C17.2316 7.40234 17.8039 7.16529 18.2259 6.74333C18.6478 6.32138 18.8849 5.74908 18.8849 5.15234C18.8849 4.55561 18.6478 3.98331 18.2259 3.56135C17.8039 3.1394 17.2316 2.90234 16.6349 2.90234C16.0381 2.90234 15.4658 3.1394 15.0439 3.56135C14.6219 3.98331 14.3849 4.55561 14.3849 5.15234C14.3849 5.74908 14.6219 6.32138 15.0439 6.74333C15.4658 7.16529 16.0381 7.40234 16.6349 7.40234ZM6.73486 13.2523C7.3316 13.2523 7.9039 13.0153 8.32585 12.5933C8.74781 12.1714 8.98486 11.5991 8.98486 11.0023C8.98486 10.4056 8.74781 9.83331 8.32585 9.41135C7.9039 8.9894 7.3316 8.75234 6.73486 8.75234C6.13813 8.75234 5.56583 8.9894 5.14387 9.41135C4.72192 9.83331 4.48486 10.4056 4.48486 11.0023C4.48486 11.5991 4.72192 12.1714 5.14387 12.5933C5.56583 13.0153 6.13813 13.2523 6.73486 13.2523Z" stroke="white" stroke-width="1.13" stroke-linejoin="round"/>
<path d="M14.3849 6.30859L8.68795 9.76009M8.6875 12.1536L14.6905 15.701" stroke="white" stroke-width="1.13" stroke-linecap="round" stroke-linejoin="round"/>
<path d="M16.6353 14.6016C17.232 14.6016 17.8043 14.8386 18.2262 15.2606C18.6482 15.6825 18.8853 16.2548 18.8853 16.8516C18.8853 17.4483 18.6482 18.0206 18.2262 18.4426C17.8043 18.8645 17.232 19.1016 16.6353 19.1016C16.0385 19.1016 15.4662 18.8645 15.0443 18.4426C14.6223 18.0206 14.3853 17.4483 14.3853 16.8516C14.3853 16.2548 14.6223 15.6825 15.0443 15.2606C15.4662 14.8386 16.0385 14.6016 16.6353 14.6016Z" stroke="white" stroke-width="1.13" stroke-linejoin="round"/>
</svg>
