<svg width="32" height="32" viewBox="0 0 32 32" fill="none" xmlns="http://www.w3.org/2000/svg">
<path d="M24.1634 27.9167C22.6773 29.3416 21.0547 29.1166 19.4928 28.4417C17.8398 27.7517 16.3234 27.7218 14.5795 28.4417C12.3958 29.3715 11.2433 29.1016 9.93917 27.9167C2.53893 20.3727 3.63077 8.88413 12.0319 8.46418C14.0791 8.56917 15.5045 9.57404 16.7025 9.66403C18.4919 9.30408 20.2055 8.26921 22.1162 8.40419C24.406 8.58417 26.1348 9.48406 27.2721 11.1039C22.5408 13.9085 23.663 20.0727 28 21.7975C27.1356 24.0472 26.0135 26.2819 24.1482 27.9317L24.1634 27.9167ZM16.5509 8.3742C16.3234 5.02962 19.0682 2.26997 22.2224 2C22.6621 5.86951 18.6739 8.74915 16.5509 8.3742Z" fill="white"/>
</svg>
