<svg width="32" height="32" viewBox="0 0 32 32" fill="none" xmlns="http://www.w3.org/2000/svg">
<path d="M29 16C29 8.82034 23.1797 3 16 3C8.82034 3 3 8.82024 3 16C3 22.4886 7.75394 27.8669 13.9688 28.8421V19.7578H10.668V16H13.9688V13.1359C13.9688 9.87781 15.9096 8.07813 18.879 8.07813C20.3014 8.07813 21.7891 8.33203 21.7891 8.33203V11.5313H20.1498C18.5348 11.5313 18.0312 12.5334 18.0312 13.5615V16H21.6367L21.0604 19.7578H18.0312V28.8421C24.2461 27.8669 29 22.4887 29 16Z" fill="#1877F2"/>
<path d="M21.0604 19.7578L21.6367 16H18.0312V13.5615C18.0312 12.5333 18.5349 11.5312 20.1498 11.5312H21.7891V8.33203C21.7891 8.33203 20.3014 8.07812 18.879 8.07812C15.9096 8.07812 13.9688 9.87781 13.9688 13.1359V16H10.668V19.7578H13.9688V28.8421C14.6407 28.9474 15.3198 29.0002 16 29C16.6802 29.0002 17.3593 28.9474 18.0312 28.8421V19.7578H21.0604Z" fill="white"/>
</svg>
