<svg width="32" height="32" viewBox="0 0 32 32" fill="none" xmlns="http://www.w3.org/2000/svg">
<path d="M29.0741 13.39H28.0001V13.3346H16.0001V18.668H23.5354C22.4361 21.7726 19.4821 24.0013 16.0001 24.0013C11.5821 24.0013 8.00008 20.4193 8.00008 16.0013C8.00008 11.5833 11.5821 8.0013 16.0001 8.0013C18.0394 8.0013 19.8947 8.77063 21.3074 10.0273L25.0787 6.25597C22.6974 4.03664 19.5121 2.66797 16.0001 2.66797C8.63675 2.66797 2.66675 8.63797 2.66675 16.0013C2.66675 23.3646 8.63675 29.3346 16.0001 29.3346C23.3634 29.3346 29.3334 23.3646 29.3334 16.0013C29.3334 15.1073 29.2414 14.2346 29.0741 13.39Z" fill="#FFC107"/>
<path d="M4.2041 9.7953L8.58477 13.008C9.7701 10.0733 12.6408 8.0013 16.0001 8.0013C18.0394 8.0013 19.8948 8.77064 21.3074 10.0273L25.0788 6.25597C22.6974 4.03664 19.5121 2.66797 16.0001 2.66797C10.8788 2.66797 6.43743 5.5593 4.2041 9.7953Z" fill="#FF3D00"/>
<path d="M15.9999 29.3338C19.4439 29.3338 22.5732 28.0158 24.9392 25.8725L20.8125 22.3805C19.4289 23.4327 17.7382 24.0018 15.9999 24.0005C12.5319 24.0005 9.58722 21.7891 8.47788 18.7031L4.12988 22.0531C6.33655 26.3711 10.8179 29.3338 15.9999 29.3338Z" fill="#4CAF50"/>
<path d="M29.074 13.3874H28V13.332H16V18.6654H23.5353C23.0095 20.143 22.0622 21.4341 20.8107 22.3794L20.8127 22.378L24.9393 25.87C24.6473 26.1354 29.3333 22.6654 29.3333 15.9987C29.3333 15.1047 29.2413 14.232 29.074 13.3874Z" fill="#1976D2"/>
</svg>
