<svg width="16" height="16" viewBox="0 0 16 16" fill="none" xmlns="http://www.w3.org/2000/svg">
<path d="M6.00016 14.6654H10.0002C13.3335 14.6654 14.6668 13.332 14.6668 9.9987V5.9987C14.6668 2.66536 13.3335 1.33203 10.0002 1.33203H6.00016C2.66683 1.33203 1.3335 2.66536 1.3335 5.9987V9.9987C1.3335 13.332 2.66683 14.6654 6.00016 14.6654Z" stroke="#858585" stroke-width="1.5" stroke-linecap="round" stroke-linejoin="round"/>
<path d="M10.8531 9.07375C10.0998 9.82708 9.01981 10.0604 8.06647 9.76042L6.33981 11.4804C6.21981 11.6071 5.97314 11.6871 5.79314 11.6604L4.99314 11.5537C4.72647 11.5204 4.48647 11.2671 4.44647 11.0071L4.33981 10.2071C4.31314 10.0338 4.39981 9.78708 4.51981 9.66042L6.23981 7.94042C5.94647 6.98708 6.17314 5.90708 6.92647 5.15375C8.00647 4.07375 9.76647 4.07375 10.8531 5.15375C11.9331 6.22708 11.9331 7.98708 10.8531 9.07375Z" stroke="#858585" stroke-miterlimit="10" stroke-linecap="round" stroke-linejoin="round"/>
<path d="M6.96657 10.8546L6.3999 10.2812" stroke="#858585" stroke-miterlimit="10" stroke-linecap="round" stroke-linejoin="round"/>
<path d="M8.92977 7.13411H8.93576" stroke="#858585" stroke-linecap="round" stroke-linejoin="round"/>
</svg>
