<svg width="16" height="16" viewBox="0 0 16 16" fill="none" xmlns="http://www.w3.org/2000/svg">
<g clip-path="url(#clip0_188_1841)">
<path d="M4 6.66536V5.33203C4 3.12536 4.66667 1.33203 8 1.33203C11.3333 1.33203 12 3.12536 12 5.33203V6.66536M8 12.332C8.44203 12.332 8.86595 12.1564 9.17851 11.8439C9.49107 11.5313 9.66667 11.1074 9.66667 10.6654C9.66667 10.2233 9.49107 9.79941 9.17851 9.48685C8.86595 9.17429 8.44203 8.9987 8 8.9987C7.55797 8.9987 7.13405 9.17429 6.82149 9.48685C6.50893 9.79941 6.33333 10.2233 6.33333 10.6654C6.33333 11.1074 6.50893 11.5313 6.82149 11.8439C7.13405 12.1564 7.55797 12.332 8 12.332Z" stroke="#858585" stroke-width="1.5" stroke-linecap="round" stroke-linejoin="round"/>
<path d="M11.3333 14.668H4.66659C1.99992 14.668 1.33325 14.0013 1.33325 11.3346V10.0013C1.33325 7.33464 1.99992 6.66797 4.66659 6.66797H11.3333C13.9999 6.66797 14.6666 7.33464 14.6666 10.0013V11.3346C14.6666 14.0013 13.9999 14.668 11.3333 14.668Z" stroke="#858585" stroke-width="1.5" stroke-linecap="round" stroke-linejoin="round"/>
</g>
<defs>
<clipPath id="clip0_188_1841">
<rect width="16" height="16" fill="white"/>
</clipPath>
</defs>
</svg>
