<svg width="83" height="83" viewBox="0 0 83 83" fill="none" xmlns="http://www.w3.org/2000/svg">
<rect x="6.46875" y="6.44531" width="70.0625" height="70.0625" rx="19" fill="white"/>
<rect x="1.18799" y="1.16406" width="80.624" height="80.624" rx="22.75" stroke="#DDDDDD" stroke-opacity="0.5" stroke-width="0.5"/>
<path d="M40.9803 57.8894C37.7891 57.8894 34.993 57.1904 32.5919 55.7923C30.2213 54.3943 28.3521 52.4643 26.9844 50.0025C25.6472 47.5103 24.9785 44.6382 24.9785 41.3861C24.9785 38.1341 25.6472 35.2772 26.9844 32.8153C28.3521 30.3231 30.2213 28.378 32.5919 26.9799C34.993 25.5818 37.7891 24.8828 40.9803 24.8828C44.1412 24.8828 46.9221 25.5818 49.3232 26.9799C51.7242 28.378 53.5934 30.3231 54.9307 32.8153C56.2679 35.2772 56.9366 38.1341 56.9366 41.3861C56.9366 43.2558 56.7123 45.0046 56.2638 46.6328C55.715 48.6247 54.6947 50.0774 53.134 51.4314C52.4723 52.0054 52.4393 53.3324 53.2907 53.5382L56.571 54.3311C58.7541 54.8588 58.3663 58.0733 56.1203 58.0667L45.6954 57.9342C44.2708 57.9342 42.5 57.8894 40.9803 57.8894ZM40.9803 52.6467C44.0196 52.6467 46.4359 51.6437 48.229 49.6378C50.0526 47.6318 50.9644 44.8813 50.9644 41.3861C50.9644 37.8909 50.0526 35.1404 48.229 33.1345C46.4359 31.1285 44.0196 30.1256 40.9803 30.1256C37.9411 30.1256 35.5096 31.1285 33.6861 33.1345C31.8625 35.1404 30.9507 37.8909 30.9507 41.3861C30.9507 44.8813 31.8625 47.6318 33.6861 49.6378C35.5096 51.6437 37.9411 52.6467 40.9803 52.6467Z" fill="#3D3D3D"/>
</svg>
