<svg width="35" height="35" viewBox="0 0 35 35" fill="none" xmlns="http://www.w3.org/2000/svg">
<path d="M16.9803 33.8504C13.7891 33.8504 10.993 33.1513 8.59192 31.7533C6.22128 30.3552 4.35212 28.4252 2.98444 25.9634C1.64716 23.4712 0.978516 20.5991 0.978516 17.3471C0.978516 14.095 1.64716 11.2381 2.98444 8.77628C4.35212 6.28407 6.22128 4.33893 8.59192 2.94086C10.993 1.54279 13.7891 0.84375 16.9803 0.84375C20.1412 0.84375 22.9221 1.54279 25.3232 2.94086C27.7242 4.33893 29.5934 6.28407 30.9307 8.77628C32.2679 11.2381 32.9366 14.095 32.9366 17.3471C32.9366 19.2167 32.7123 20.9656 32.2638 22.5937C31.715 24.5857 30.6947 26.0383 29.134 27.3923C28.4723 27.9664 28.4393 29.2934 29.2907 29.4992L32.571 30.2921C34.7541 30.8197 34.3663 34.0342 32.1203 34.0276L21.6954 33.8952C20.2708 33.8952 18.5 33.8504 16.9803 33.8504ZM16.9803 28.6076C20.0196 28.6076 22.4359 27.6046 24.229 25.5987C26.0526 23.5928 26.9644 20.8422 26.9644 17.3471C26.9644 13.8519 26.0526 11.1013 24.229 9.0954C22.4359 7.08948 20.0196 6.08651 16.9803 6.08651C13.9411 6.08651 11.5096 7.08948 9.68606 9.0954C7.86249 11.1013 6.95071 13.8519 6.95071 17.3471C6.95071 20.8422 7.86249 23.5928 9.68606 25.5987C11.5096 27.6046 13.9411 28.6076 16.9803 28.6076Z" fill="white"/>
</svg>
