<svg width="16" height="16" viewBox="0 0 16 16" fill="none" xmlns="http://www.w3.org/2000/svg">
<path d="M9.33317 3.66536H6.6665M13.3332 4.66536V11.332C13.3332 13.9987 12.6665 14.6654 9.99984 14.6654H5.99984C3.33317 14.6654 2.6665 13.9987 2.6665 11.332V4.66536C2.6665 1.9987 3.33317 1.33203 5.99984 1.33203H9.99984C12.6665 1.33203 13.3332 1.9987 13.3332 4.66536Z" stroke="#858585" stroke-width="1.5" stroke-linecap="round" stroke-linejoin="round"/>
<path d="M8.00013 12.7346C8.27419 12.7346 8.53702 12.6258 8.73081 12.432C8.9246 12.2382 9.03346 11.9754 9.03346 11.7013C9.03346 11.4272 8.9246 11.1644 8.73081 10.9706C8.53702 10.7768 8.27419 10.668 8.00013 10.668C7.72607 10.668 7.46324 10.7768 7.26945 10.9706C7.07567 11.1644 6.9668 11.4272 6.9668 11.7013C6.9668 11.9754 7.07567 12.2382 7.26945 12.432C7.46324 12.6258 7.72607 12.7346 8.00013 12.7346Z" stroke="#858585" stroke-width="0.8" stroke-linecap="round" stroke-linejoin="round"/>
</svg>
