<svg width="19" height="18" viewBox="0 0 19 18" fill="none" xmlns="http://www.w3.org/2000/svg">
<path d="M11.3974 7.10238L7.60238 10.8974C7.09913 10.3941 6.81641 9.71158 6.81641 8.99988C6.81641 8.64748 6.88582 8.29853 7.02067 7.97296C7.15553 7.64738 7.35319 7.35156 7.60238 7.10238C7.85156 6.85319 8.14738 6.65553 8.47296 6.52067C8.79853 6.38582 9.14748 6.31641 9.49988 6.31641C10.2116 6.31641 10.8941 6.59913 11.3974 7.10238Z" stroke="#858585" stroke-width="1.5" stroke-linecap="round" stroke-linejoin="round"/>
<path d="M13.8649 4.32687C12.5524 3.33687 11.0524 2.79688 9.49988 2.79688C6.85238 2.79688 4.38488 4.35687 2.66738 7.05687C1.99238 8.11437 1.99238 9.89188 2.66738 10.9494C3.25988 11.8794 3.94988 12.6819 4.69988 13.3269M6.81488 14.6469C7.66988 15.0069 8.57738 15.2019 9.49988 15.2019C12.1474 15.2019 14.6149 13.6419 16.3324 10.9419C17.0074 9.88438 17.0074 8.10687 16.3324 7.04937C16.0849 6.65937 15.8149 6.29187 15.5374 5.94687" stroke="#858585" stroke-width="1.5" stroke-linecap="round" stroke-linejoin="round"/>
<path d="M12.1325 9.525C12.0309 10.0482 11.7753 10.5291 11.3984 10.9059C11.0216 11.2828 10.5407 11.5384 10.0175 11.64M7.6025 10.8975L2 16.5M17 1.5L11.3975 7.1025" stroke="#858585" stroke-width="1.5" stroke-linecap="round" stroke-linejoin="round"/>
</svg>
