<svg width="16" height="17" viewBox="0 0 16 17" fill="none" xmlns="http://www.w3.org/2000/svg">
<path d="M13.7268 15.1654C13.7268 12.5854 11.1601 10.4987 8.0001 10.4987C4.8401 10.4987 2.27344 12.5854 2.27344 15.1654M8.0001 8.4987C8.88416 8.4987 9.73201 8.14751 10.3571 7.52239C10.9822 6.89727 11.3334 6.04942 11.3334 5.16536C11.3334 4.28131 10.9822 3.43346 10.3571 2.80834C9.73201 2.18322 8.88416 1.83203 8.0001 1.83203C7.11605 1.83203 6.2682 2.18322 5.64308 2.80834C5.01796 3.43346 4.66677 4.28131 4.66677 5.16536C4.66677 6.04942 5.01796 6.89727 5.64308 7.52239C6.2682 8.14751 7.11605 8.4987 8.0001 8.4987Z" stroke="#858585" stroke-width="1.5" stroke-linecap="round" stroke-linejoin="round"/>
</svg>
