<svg width="17" height="17" viewBox="0 0 17 17" fill="none" xmlns="http://www.w3.org/2000/svg">
<g clip-path="url(#clip0_229_88)">
<path d="M3.45154 6.88411H4.78487C6.1182 6.88411 6.78487 6.21745 6.78487 4.88411V3.55078C6.78487 2.21745 6.1182 1.55078 4.78487 1.55078H3.45154C2.1182 1.55078 1.45154 2.21745 1.45154 3.55078V4.88411C1.45154 6.21745 2.1182 6.88411 3.45154 6.88411ZM11.4515 6.88411H12.7849C14.1182 6.88411 14.7849 6.21745 14.7849 4.88411V3.55078C14.7849 2.21745 14.1182 1.55078 12.7849 1.55078H11.4515C10.1182 1.55078 9.45154 2.21745 9.45154 3.55078V4.88411C9.45154 6.21745 10.1182 6.88411 11.4515 6.88411ZM11.4515 14.8841H12.7849C14.1182 14.8841 14.7849 14.2174 14.7849 12.8841V11.5508C14.7849 10.2174 14.1182 9.55078 12.7849 9.55078H11.4515C10.1182 9.55078 9.45154 10.2174 9.45154 11.5508V12.8841C9.45154 14.2174 10.1182 14.8841 11.4515 14.8841ZM3.45154 14.8841H4.78487C6.1182 14.8841 6.78487 14.2174 6.78487 12.8841V11.5508C6.78487 10.2174 6.1182 9.55078 4.78487 9.55078H3.45154C2.1182 9.55078 1.45154 10.2174 1.45154 11.5508V12.8841C1.45154 14.2174 2.1182 14.8841 3.45154 14.8841Z" stroke="white" stroke-width="1.5" stroke-miterlimit="10" stroke-linecap="round" stroke-linejoin="round"/>
</g>
<defs>
<clipPath id="clip0_229_88">
<rect width="16" height="16" fill="white" transform="translate(0.118164 0.21875)"/>
</clipPath>
</defs>
</svg>
