<svg width="17" height="17" viewBox="0 0 17 17" fill="none" xmlns="http://www.w3.org/2000/svg">
<path d="M1.58325 10.6943V4.30762C1.58325 3.42095 2.09659 3.20762 2.72325 3.83429L4.44992 5.56095C4.70992 5.82095 5.13658 5.82095 5.38992 5.56095L7.77659 3.16762C7.83826 3.10582 7.91152 3.05678 7.99217 3.02333C8.07282 2.98988 8.15927 2.97266 8.24658 2.97266C8.3339 2.97266 8.42035 2.98988 8.501 3.02333C8.58165 3.05678 8.65491 3.10582 8.71658 3.16762L11.1099 5.56095C11.3699 5.82095 11.7966 5.82095 12.0499 5.56095L13.7766 3.83429C14.4033 3.20762 14.9166 3.42095 14.9166 4.30762V10.701C14.9166 12.701 13.5833 14.0343 11.5833 14.0343H4.91658C3.07659 14.0276 1.58325 12.5343 1.58325 10.6943Z" fill="#E2CF27"/>
</svg>
