<svg width="16" height="13" viewBox="0 0 16 13" fill="none" xmlns="http://www.w3.org/2000/svg">
<path d="M1.5697 8.85444V2.46778C1.5697 1.58111 2.08304 1.36778 2.7097 1.99444L4.43637 3.72111C4.69637 3.98111 5.12304 3.98111 5.37637 3.72111L7.76304 1.32778C7.82471 1.26597 7.89797 1.21694 7.97862 1.18349C8.05927 1.15003 8.14572 1.13281 8.23304 1.13281C8.32035 1.13281 8.4068 1.15003 8.48745 1.18349C8.5681 1.21694 8.64136 1.26597 8.70303 1.32778L11.0964 3.72111C11.3564 3.98111 11.783 3.98111 12.0364 3.72111L13.763 1.99444C14.3897 1.36778 14.903 1.58111 14.903 2.46778V8.86111C14.903 10.8611 13.5697 12.1944 11.5697 12.1944H4.90304C3.06304 12.1878 1.5697 10.6944 1.5697 8.85444Z" stroke="white" stroke-width="1.5" stroke-linecap="round" stroke-linejoin="round"/>
</svg>
