<svg width="17" height="17" viewBox="0 0 17 17" fill="none" xmlns="http://www.w3.org/2000/svg">
<g clip-path="url(#clip0_224_173)">
<path d="M12.9486 7.35349V10.0202C12.9486 10.1935 12.942 10.3602 12.922 10.5202C12.7686 12.3202 11.7086 13.2135 9.75529 13.2135H9.48862C9.32195 13.2135 9.16195 13.2935 9.06195 13.4268L8.26195 14.4935C7.90862 14.9668 7.33529 14.9668 6.98195 14.4935L6.18195 13.4268C6.12859 13.3647 6.06337 13.3138 5.99011 13.2772C5.91685 13.2405 5.83702 13.2189 5.75529 13.2135H5.48862C3.36195 13.2135 2.29529 12.6868 2.29529 10.0202V7.35349C2.29529 5.40016 3.19529 4.34016 4.98862 4.18682C5.14862 4.16682 5.31529 4.16016 5.48862 4.16016H9.75529C11.882 4.16016 12.9486 5.22682 12.9486 7.35349Z" stroke="white" stroke-miterlimit="10" stroke-linecap="round" stroke-linejoin="round"/>
<path d="M15.6152 4.68552V7.35219C15.6152 9.31219 14.7152 10.3655 12.9219 10.5189C12.9419 10.3589 12.9485 10.1922 12.9485 10.0189V7.35219C12.9485 5.22552 11.8819 4.15885 9.75519 4.15885H5.48853C5.31519 4.15885 5.14853 4.16552 4.98853 4.18552C5.14186 2.39219 6.20186 1.49219 8.15519 1.49219H12.4219C14.5485 1.49219 15.6152 2.55885 15.6152 4.68552Z" stroke="white" stroke-miterlimit="10" stroke-linecap="round" stroke-linejoin="round"/>
<path d="M9.95854 8.99219H9.9652M7.6252 8.99219H7.63187M5.29187 8.99219H5.29854" stroke="white" stroke-linecap="round" stroke-linejoin="round"/>
</g>
<defs>
<clipPath id="clip0_224_173">
<rect width="16" height="16" fill="white" transform="translate(0.961914 0.160156)"/>
</clipPath>
</defs>
</svg>
