<svg width="17" height="16" viewBox="0 0 17 16" fill="none" xmlns="http://www.w3.org/2000/svg">
<g clip-path="url(#clip0_229_79)">
<path d="M13.0211 5.33203C13.5516 5.33203 14.0603 5.12132 14.4353 4.74624C14.8104 4.37117 15.0211 3.86246 15.0211 3.33203C15.0211 2.8016 14.8104 2.29289 14.4353 1.91782C14.0603 1.54275 13.5516 1.33203 13.0211 1.33203C12.4907 1.33203 11.982 1.54275 11.6069 1.91782C11.2318 2.29289 11.0211 2.8016 11.0211 3.33203C11.0211 3.86246 11.2318 4.37117 11.6069 4.74624C11.982 5.12132 12.4907 5.33203 13.0211 5.33203Z" stroke="white" stroke-width="1.5" stroke-linecap="round" stroke-linejoin="round"/>
<path d="M9.68787 1.33203H6.35453C3.0212 1.33203 1.68787 2.66536 1.68787 5.9987V9.9987C1.68787 13.332 3.0212 14.6654 6.35453 14.6654H10.3545C13.6879 14.6654 15.0212 13.332 15.0212 9.9987V6.66536" stroke="white" stroke-width="1.5" stroke-linecap="round" stroke-linejoin="round"/>
</g>
<defs>
<clipPath id="clip0_229_79">
<rect width="16" height="16" fill="white" transform="translate(0.354492)"/>
</clipPath>
</defs>
</svg>
